<?xml version="1.0" encoding="UTF-8"?>
<svg id="Layer_1" xmlns="http://www.w3.org/2000/svg" version="1.1" viewBox="0 0 181.4 181.9">
  <!-- Generator: Adobe Illustrator 29.7.1, SVG Export Plug-In . SVG Version: 2.1.1 Build 8)  -->
  <defs>
    <style>
      .st0 {
        fill: #fff;
      }

      .st1 {
        fill: #4d3f92;
      }
    </style>
  </defs>
  <g id="Capa_2">
    <g>
      <path class="st1" d="M151.6,95.1c1.5-.3,2.8-1,3.8-2,4-5.3.8-11.8-4.5-12.6-.8,0-1.5-.8-1.5-1.5v-.5c.8-.8,1.5-1.8,2.5-3.3,8.1-10.8,11.8-50.6,3.8-53.7-9.8-3.3-29.7,6.3-38.3,17.4-.5-.3-1-1-1-1.8.3-3-1.3-5.5-3.5-6.8-4.5-2.3-8.8,0-10.6,3.3-.5.8-1.3,1.3-2,1-.8,0-1.5-.8-1.5-1.5-.5-2.5-2-4.5-4.3-5.5-4.8-2-9.8.8-10.6,5.3-.3.8-.8,1.5-1.5,1.5-.8.3-1.5-.3-2-1-1.5-2.3-4-3.8-6.5-3.8-4,0-7.6,3.3-7.8,7.3v.6c0,.8-.5,1.5-1,1.8h-.3c-8.3-10.8-28.5-20.7-38.5-17.4-8.1,2.8-4.3,42.6,4,53.4,1.5,2,2.8,3.5,3.8,4.5-.3.8-1,1.5-1.8,1.5-1.3,0-2.5.5-3.5,1.3-5.3,5-2.3,12.1,3,13.4.8.3,1.5,1,1.5,1.8s-.5,1.8-1.3,2c-1,.5-2,1-2.8,2-4,5.8,0,12.3,5.5,12.3s1.5.5,1.8,1.3.3,1.5-.5,2c-1.5,1.5-2.3,3.5-2,5.5.3,2.8,2,5.3,4.8,6.5,1.5.8,3,.8,4.5.5.8-.3,1.5,0,2,.8.5.5.5,1.5.3,2-.8,1.5-1,3.3-.5,5,.8,2.8,2.8,4.8,5.5,5.5,2.5.5,4.3-.3,5.5-.8.5-.3-3.3,9.1-6,15.4-.8,2,1.3,4.3,3.5,3.3,8.3-3.8,22.2-10.3,22.2-9.8.5,5.3,6.5,9.1,12.3,5.3,1.3-.8,2-2.3,2.3-3.5.3-.8,1-1.5,2-1.5s1.8.5,2,1.5c.3,1.3.8,2.3,1.8,3,5.8,4.5,12.3.8,12.8-4.8,0-.8.5-1.5,1.3-1.8s1.5,0,2,.5c1.5,1.5,3.3,2.5,5.3,2.5h0c2.5,0,5-1.3,6.5-3.8,1-1.5,1.3-3,1-5,0-.8.3-1.5.8-2s1.5-.5,2,0c1.5.8,3.3,1.3,5,.8,2.8-.5,5-2.8,5.8-5.3.5-1.8.3-3.5-.5-5.3-.3-.8-.3-1.5.3-2s1.3-.8,2-.8c1.8.3,3.3.3,4.8-.5,2.3-1,3.8-3,4.3-5.5s-.3-4.8-2-6.5-.8-1.3-.5-2,1-1.3,1.8-1.3c1.8,0,3.8-.5,5-2,4.3-4.5,2.3-10.6-2.5-12.6-.8-.3-1.3-1-1.3-2,0-.9.7-1.6,1.5-1.6Z"/>
      <path class="st0" d="M131.4,42.2c.5,1.5.5,3,0,4.5-.3.8,0,1.5.5,2s1.3.8,2,.5c1-.5,2-.5,3-.5,2.3,0,4.3,1,5.8,3,1,1.3,1.8,3,1.5,4.8,0,1.5-.5,2.8-1.3,4-.5.5-.5,1.5,0,2,.3.3.5.8,1,.8,1-.3,2-1,2.8-2,4.5-6.3,5.3-26.2.8-27.7s-12.3,1.5-17.9,6c1.1.5,1.6,1.3,1.8,2.6Z"/>
      <path class="st0" d="M39,63.6l.8-.8c.5-.8.3-1.5,0-2-1.3-1.8-1.6-3.8-1.3-5.8.5-2.8,2.8-5,5.5-5.8,1.5-.5,3-.3,4.5.3.8.3,1.5,0,2-.5s.8-1.3.5-2c-.5-1.5-.5-3,0-4.5.3-1,.8-2,1.5-2.8-5.5-4.5-13.9-7.8-18.4-6.3s-3.7,21.4.9,27.7c1,1.5,2.2,2.2,4,2.5Z"/>
      <g>
        <circle class="st0" cx="60.9" cy="94.6" r="9.3"/>
        <path class="st0" d="M100.7,94.6c0,5.3-4.3,9.3-9.3,9.3s-9.3-4.3-9.3-9.3,18.6-5.3,18.6,0Z"/>
        <circle class="st0" cx="121.6" cy="94.6" r="9.3"/>
      </g>
    </g>
  </g>
</svg>