<?xml version="1.0" encoding="UTF-8"?>
<svg id="Layer_2" data-name="Layer 2" xmlns="http://www.w3.org/2000/svg" width="55.39mm" height="55.39mm" viewBox="0 0 157 157">
  <defs>
    <style>
      .cls-1 {
        fill: #fff;
      }

      .cls-2 {
        fill: #29807b;
      }
    </style>
  </defs>
  <g id="Layer_1-2" data-name="Layer 1">
    <rect class="cls-2" width="157" height="157" rx="12" ry="12"/>
    <g>
      <path class="cls-1" d="M127.23,70.88l6.55-19.83h8.42l-21.42,63.04h-9.82l-21.51-63.04h8.7l6.73,19.83h22.35ZM106.56,77.24l6.17,18.15c1.4,4.12,2.34,7.86,3.27,11.5h.19c.94-3.74,1.96-7.58,3.18-11.41l6.17-18.24h-18.99Z"/>
      <path class="cls-1" d="M27.43,78.74c.47,8.79,1.03,19.36.94,27.22h.28c2.15-7.39,4.77-15.25,7.95-23.95l11.13-30.59h6.17l10.2,30.03c2.99,8.89,5.52,17.02,7.3,24.51h.19c.19-7.86.65-18.43,1.22-27.87l1.68-27.03h7.76l-4.4,63.04h-10.38l-10.76-30.49c-2.62-7.76-4.77-14.69-6.36-21.23h-.28c-1.59,6.36-3.83,13.28-6.64,21.23l-11.22,30.49h-10.38l-3.93-63.04h7.95l1.59,27.69Z"/>
    </g>
  </g>
</svg>